<svg id="visual" viewBox="0 0 960 540" width="960" height="540" xmlns="http://www.w3.org/2000/svg" xmlns:xlink="http://www.w3.org/1999/xlink" version="1.1"><rect x="0" y="0" width="960" height="540" fill="#080907"></rect><path d="M359 540L367.7 532.5C376.3 525 393.7 510 402.2 495C410.7 480 410.3 465 423.3 450C436.3 435 462.7 420 473 405C483.3 390 477.7 375 464.7 360C451.7 345 431.3 330 414.3 315C397.3 300 383.7 285 393.8 270C404 255 438 240 437.8 225C437.7 210 403.3 195 393.8 180C384.3 165 399.7 150 409.3 135C419 120 423 105 415.5 90C408 75 389 60 389 45C389 30 408 15 417.5 7.5L427 0L960 0L960 7.5C960 15 960 30 960 45C960 60 960 75 960 90C960 105 960 120 960 135C960 150 960 165 960 180C960 195 960 210 960 225C960 240 960 255 960 270C960 285 960 300 960 315C960 330 960 345 960 360C960 375 960 390 960 405C960 420 960 435 960 450C960 465 960 480 960 495C960 510 960 525 960 532.5L960 540Z" fill="#516752"></path><path d="M547 540L545.7 532.5C544.3 525 541.7 510 534.3 495C527 480 515 465 508.5 450C502 435 501 420 500 405C499 390 498 375 495.2 360C492.3 345 487.7 330 478.7 315C469.7 300 456.3 285 449.7 270C443 255 443 240 457 225C471 210 499 195 508.2 180C517.3 165 507.7 150 500.3 135C493 120 488 105 478.2 90C468.3 75 453.7 60 448.2 45C442.7 30 446.3 15 448.2 7.5L450 0L960 0L960 7.5C960 15 960 30 960 45C960 60 960 75 960 90C960 105 960 120 960 135C960 150 960 165 960 180C960 195 960 210 960 225C960 240 960 255 960 270C960 285 960 300 960 315C960 330 960 345 960 360C960 375 960 390 960 405C960 420 960 435 960 450C960 465 960 480 960 495C960 510 960 525 960 532.5L960 540Z" fill="#455a49"></path><path d="M538 540L546.7 532.5C555.3 525 572.7 510 573.8 495C575 480 560 465 566 450C572 435 599 420 601.5 405C604 390 582 375 575 360C568 345 576 330 582.3 315C588.7 300 593.3 285 591.7 270C590 255 582 240 576.8 225C571.7 210 569.3 195 567.8 180C566.3 165 565.7 150 574.8 135C584 120 603 105 613.2 90C623.3 75 624.7 60 612.3 45C600 30 574 15 561 7.5L548 0L960 0L960 7.5C960 15 960 30 960 45C960 60 960 75 960 90C960 105 960 120 960 135C960 150 960 165 960 180C960 195 960 210 960 225C960 240 960 255 960 270C960 285 960 300 960 315C960 330 960 345 960 360C960 375 960 390 960 405C960 420 960 435 960 450C960 465 960 480 960 495C960 510 960 525 960 532.5L960 540Z" fill="#3a4d3f"></path><path d="M625 540L625.2 532.5C625.3 525 625.7 510 638 495C650.3 480 674.7 465 674.5 450C674.3 435 649.7 420 638.2 405C626.7 390 628.3 375 635.7 360C643 345 656 330 661.7 315C667.3 300 665.7 285 670.3 270C675 255 686 240 685.2 225C684.3 210 671.7 195 665.5 180C659.3 165 659.7 150 662 135C664.3 120 668.7 105 675.8 90C683 75 693 60 685.3 45C677.7 30 652.3 15 639.7 7.5L627 0L960 0L960 7.5C960 15 960 30 960 45C960 60 960 75 960 90C960 105 960 120 960 135C960 150 960 165 960 180C960 195 960 210 960 225C960 240 960 255 960 270C960 285 960 300 960 315C960 330 960 345 960 360C960 375 960 390 960 405C960 420 960 435 960 450C960 465 960 480 960 495C960 510 960 525 960 532.5L960 540Z" fill="#304136"></path><path d="M761 540L749.8 532.5C738.7 525 716.3 510 702.5 495C688.7 480 683.3 465 693.7 450C704 435 730 420 735.8 405C741.7 390 727.3 375 721 360C714.7 345 716.3 330 726.5 315C736.7 300 755.3 285 763.2 270C771 255 768 240 765.5 225C763 210 761 195 749.8 180C738.7 165 718.3 150 712.2 135C706 120 714 105 715.7 90C717.3 75 712.7 60 714.7 45C716.7 30 725.3 15 729.7 7.5L734 0L960 0L960 7.5C960 15 960 30 960 45C960 60 960 75 960 90C960 105 960 120 960 135C960 150 960 165 960 180C960 195 960 210 960 225C960 240 960 255 960 270C960 285 960 300 960 315C960 330 960 345 960 360C960 375 960 390 960 405C960 420 960 435 960 450C960 465 960 480 960 495C960 510 960 525 960 532.5L960 540Z" fill="#27352d"></path><path d="M794 540L802.3 532.5C810.7 525 827.3 510 822.2 495C817 480 790 465 779.8 450C769.7 435 776.3 420 778.3 405C780.3 390 777.7 375 779.5 360C781.3 345 787.7 330 785.7 315C783.7 300 773.3 285 781.5 270C789.7 255 816.3 240 819.8 225C823.3 210 803.7 195 791.2 180C778.7 165 773.3 150 774.8 135C776.3 120 784.7 105 787.5 90C790.3 75 787.7 60 790.5 45C793.3 30 801.7 15 805.8 7.5L810 0L960 0L960 7.5C960 15 960 30 960 45C960 60 960 75 960 90C960 105 960 120 960 135C960 150 960 165 960 180C960 195 960 210 960 225C960 240 960 255 960 270C960 285 960 300 960 315C960 330 960 345 960 360C960 375 960 390 960 405C960 420 960 435 960 450C960 465 960 480 960 495C960 510 960 525 960 532.5L960 540Z" fill="#1e2923"></path><path d="M899 540L891.8 532.5C884.7 525 870.3 510 862.8 495C855.3 480 854.7 465 856.2 450C857.7 435 861.3 420 865.8 405C870.3 390 875.7 375 872.5 360C869.3 345 857.7 330 862.8 315C868 300 890 285 898.8 270C907.7 255 903.3 240 891.7 225C880 210 861 195 857 180C853 165 864 150 870.3 135C876.7 120 878.3 105 878 90C877.7 75 875.3 60 881.8 45C888.3 30 903.7 15 911.3 7.5L919 0L960 0L960 7.5C960 15 960 30 960 45C960 60 960 75 960 90C960 105 960 120 960 135C960 150 960 165 960 180C960 195 960 210 960 225C960 240 960 255 960 270C960 285 960 300 960 315C960 330 960 345 960 360C960 375 960 390 960 405C960 420 960 435 960 450C960 465 960 480 960 495C960 510 960 525 960 532.5L960 540Z" fill="#161d1a"></path></svg>