<svg id="canvas" height="auto" xmlns="http://www.w3.org/2000/svg" version="1.1" xmlns:xlink="http://www.w3.org/1999/xlink" xmlns:svgjs="http://svgjs.dev/svgjs" viewBox="0 0 900 512" width="auto" style="width: auto; height: auto;"><rect width="900" height="512" fill="#090a0eff"/><path d="M151.89626586741952 352.05153734289865C109.41796647332308 366.34411902525403 48.21265685933008 340.05253856532704 -0.5553993309535485 337.20130917060294C-49.32345552123718 334.35007977587884 -99.94752302022118 356.9777988535184 -140.71207127428227 334.94416097455405C-181.47661952834335 312.9105230955897 -211.87804382946302 242.20165370513973 -245.14268885532013 204.99948189681686C-278.40733388117724 167.797310088494 -323.33886902320614 150.93759680344772 -340.29994142942485 111.73113012461704C-357.26101383564355 72.52466344578642 -346.7983245512227 15.07157074933798 -346.9091232926324 -30.23931817616699C-347.01992203404205 -75.55020710167196 -355.8843794603188 -121.7974518319123 -340.96473387788285 -160.13420342841277C-326.0450882954469 -198.47095502491325 -287.0043974704611 -229.51958544677316 -257.3912497980166 -260.25982775516985C-227.77810212557213 -291.0000700635665 -205.62509334249555 -331.01517810128735 -163.28584784321606 -344.57565727879285C-120.94660234393658 -358.13613645629835 -53.19162428926256 -342.0510987678292 -3.355776802339676 -341.6227028202028C46.48007068458321 -341.19430687257636 95.39361082263076 -357.5321517294118 135.72923707832126 -342.00528159303445C176.06486333401176 -326.4784114566571 205.91113994048862 -281.232643342282 238.65798073180315 -248.46148200193886C271.4048215231177 -215.69032066159568 315.68038371047066 -184.92444706986453 332.2102818262083 -145.37831355097532C348.74017994194594 -105.83218003208611 339.39206971112606 -56.41474954098595 337.83736942622886 -11.184680888603623C336.28266914133167 34.045387763778706 336.8025755155925 82.23034836913962 322.88208011682514 126.00209836331874C308.9615847180578 169.77384835749785 282.8120327418593 213.77091257987433 254.31439703362503 251.44581907647103C225.81676132539076 289.1207255730677 194.37456526151595 337.7589556605433 151.89626586741952 352.05153734289865C109.41796647332308 366.34411902525403 48.21265685933008 340.05253856532704 -0.5553993309535485 337.20130917060294 " fill="url(#SvgjsLinearGradient1094)"/><defs><linearGradient gradientTransform="matrix(1,0,0,1,0,0)" id="SvgjsLinearGradient1094"><stop stop-color="#aeb3cdff" offset="0"/><stop stop-color="#c8aecdff" offset="1"/></linearGradient><linearGradient gradientTransform="matrix(1,0,0,1,0,0)" id="SvgjsLinearGradient1095"><stop stop-color="#aeb3cdff" offset="0"/><stop stop-color="#c8aecdff" offset="1"/></linearGradient></defs><path d="M981.3727188455113 878.1080863623908C945.137184214848 894.131888601327 903.3400759898034 894.7908624180576 862.4009802137888 896.574440701404C821.4618844377742 898.3580189847504 771.6141538082479 903.3092134147273 735.738144189424 888.8095560624693C699.8621345706 874.3098987102112 676.9279463432595 838.128953766543 647.1449225008449 809.5764965878559C617.3618986584303 781.0240394091688 571.9721421019739 754.9584080953739 557.0400011349366 717.4948129903471C542.1078601678992 680.0312178853203 557.6012315313739 628.1353530663722 557.5520766986206 584.7949259576951C557.5029218658672 541.454498849018 541.1348002759273 492.94621347397117 556.7450721384167 457.45225033828467C572.3553440009061 421.95828720259817 618.346112027242 401.49434854722807 651.2137078735567 371.83114714357635C684.0813037198714 342.1679457399246 714.0117680151595 296.78869911426415 753.9506472163048 279.47304191637426C793.8895264174499 262.15738471848437 845.1061520966678 267.9506099520426 890.8469830804278 267.9372039562371C936.5878140641878 267.9237979604316 987.1159907794266 262.15758890959694 1028.3956331188654 279.39260594154126C1069.675275458304 296.6276229734856 1104.892146991175 338.53783102544764 1138.5248371170603 371.34730614790305C1172.1575272429457 404.15678127035835 1216.5320423864905 437.7840755163586 1230.1917738741772 476.24945667627344C1243.8515053618637 514.7148378361883 1224.685363128133 558.8278716392911 1220.48322604318 602.1395931073919C1216.2810889582265 645.4513145754927 1228.4237910386923 703.0711131248124 1204.978951364457 736.1197854848783C1181.5341116902218 769.1684578449442 1117.0818934175927 776.7669104548685 1079.8141879977684 800.4316272677872C1042.546482577944 824.096344080706 1017.6082534761745 862.0842841234547 981.3727188455113 878.1080863623908C945.137184214848 894.131888601327 903.3400759898034 894.7908624180576 862.4009802137888 896.574440701404 " fill="url(#SvgjsLinearGradient1095)" transform="matrix(-1,1.2246467991473532e-16,-1.2246467991473532e-16,-1,1785.0303955078125,1165.8458251953125)"/></svg>