<svg id="canvas" height="auto" xmlns="http://www.w3.org/2000/svg" version="1.1" xmlns:xlink="http://www.w3.org/1999/xlink" xmlns:svgjs="http://svgjs.dev/svgjs" viewBox="0 0 900 512" width="auto" style="width: auto; height: auto;"><rect width="900" height="512" fill="#090a0eff"/><path d="M91.4858116401968 273.8304798902118C59.05244911487193 300.6068723996168 36.26373498283431 343.146413450864 -2.9126696395823615 353.87452420405066C-42.08907426199903 364.60263495723734 -99.98882699664483 365.95737757359007 -143.57261609430304 338.19914440933167C-187.15640519196126 310.44091124507327 -230.799779972526 228.86653499101874 -264.41540422553163 187.32512521850026C-298.0310284785372 145.78371544598178 -332.5666640598619 119.40909007049737 -345.26636161233677 88.95068577422103C-357.9660591648116 58.49228147794469 -341.15094304091554 42.46073788089382 -340.6135895403808 4.57469944084221C-340.0762360398461 -33.3113389992094 -356.9188907135654 -95.96559074619745 -342.0422406091286 -138.36554486608878C-327.1655905046918 -180.76549898598014 -283.05525441900795 -215.88833036572214 -251.3536889137599 -249.8250252785059C-219.65212340851184 -283.76172019128967 -186.73421104126373 -326.6765563829373 -151.83284757764022 -341.9857143427914C-116.93148411401671 -357.29487230264556 -81.21385234720287 -341.3545330395221 -41.9455081320188 -341.6799730376309C-2.677163916834729 -342.00541303573965 46.68168606175732 -358.6466940129357 83.77721771346432 -343.9383543314442C120.87274936517133 -329.2300146499527 149.46184447363703 -283.55486626220306 180.6276817782234 -253.42993494868182C211.79351908280978 -223.3050036351606 249.1835707871062 -203.0157924853751 270.7722415409828 -163.18876645031688C292.3609122948594 -123.36174041525865 303.37193352446366 -61.86344392309445 310.15970630148286 -14.467778738332527C316.94747907850206 32.9278864464294 331.2442450012842 86.57123334392912 311.49887820309823 121.18522465825458C291.7535114049123 155.7992159725801 228.35634993951726 167.77529327562752 191.687505512367 193.21616914762035C155.01866108521676 218.65704501961318 123.91917416552167 247.05408738080678 91.4858116401968 273.8304798902118C59.05244911487193 300.6068723996168 36.26373498283431 343.146413450864 -2.9126696395823615 353.87452420405066 " fill="url(#SvgjsLinearGradient1084)"/><defs><linearGradient gradientTransform="matrix(1,0,0,1,0,0)" id="SvgjsLinearGradient1084"><stop stop-color="#aeb3cdff" offset="0"/><stop stop-color="#c8aecdff" offset="1"/></linearGradient><linearGradient gradientTransform="matrix(1,0,0,1,0,0)" id="SvgjsLinearGradient1085"><stop stop-color="#aeb3cdff" offset="0"/><stop stop-color="#c8aecdff" offset="1"/></linearGradient></defs><path d="M990.6864997623366 890.5720022581339C958.6578156676662 916.1247859764504 927.198369666115 945.2125166500834 887.256113807392 952.8172130131935C847.3138579486689 960.4219093763036 792.2008555510331 963.6448307244453 751.0329646099983 936.2001804367943C709.8650736689633 908.7555301491433 672.7767175778565 827.8836566978536 640.2487681611825 788.1493112872871C607.7208187445085 748.4149658767207 569.6611276190744 725.321249852921 555.8652681099544 697.7941079733957C542.0694086008344 670.2669660938707 556.8551161436569 659.1569391704099 557.4736111064626 622.986460010136C558.0921060692683 586.8159808498622 545.1486468583528 523.9170680792821 559.5762378867885 480.7712330117523C574.0038289152241 437.6253979442226 614.8272543090653 398.16318121107963 644.0391572770765 364.11144960495744C673.2510602450877 330.0597179988352 700.2959844155413 292.0990802814131 734.8476556948555 276.46084337501907C769.3993269741696 260.82260646862505 811.5185696736619 270.4049387918853 851.3491849529614 270.2820281665935C891.179800232261 270.15911754130167 936.849213837022 260.1426127972134 973.8313473706528 275.7233796232681C1010.8134809042836 291.3041464493228 1042.0899880776037 334.164862891009 1073.2419861547464 363.76662912292164C1104.3939842318891 393.3683953548343 1138.8265258136767 413.6550498559259 1160.7433358335095 453.33397701474394C1182.6601458533423 493.012904173562 1197.2718646776757 554.7353394650538 1204.7428462737428 601.8401920758301C1212.2138278698098 648.9450446866065 1226.4549967262992 703.0197062414911 1205.5692254099113 735.9630926794018C1184.6834540935233 768.9064791173125 1115.2420059833435 773.7323591068392 1079.4282183754144 799.5005107032946C1043.6144307674851 825.26866229975 1022.715183857007 865.0192185398174 990.6864997623366 890.5720022581339C958.6578156676662 916.1247859764504 927.198369666115 945.2125166500834 887.256113807392 952.8172130131935 " fill="url(#SvgjsLinearGradient1085)" transform="matrix(-1,1.2246467991473532e-16,-1.2246467991473532e-16,-1,1766.4632568359375,1225.1578979492188)"/></svg>